<svg xmlns="http://www.w3.org/2000/svg" version="1.1" xmlns:xlink="http://www.w3.org/1999/xlink" xmlns:svgjs="http://svgjs.dev/svgjs" width="100%" height="100%" viewBox="0 0 1000 600"><rect width="1000" height="600" x="0" y="0" fill="#ffff"/><g><circle r="166.66666666666666" cx="344.8254954020182" cy="367.04771683905824" fill="#b2b5e0" transform="matrix(0.7016211543587215,0,0,0.7016211543587215,0,42.4715510536565)"/><path d="M319.8559086764867 302.5708495228692Q320.52500843731787 303.20953565820804 319.6430132980404 304.09153079748546L319.6430132980404 304.09153079748546L314.38145608786806 307.58909772910295Q313.7123563270369 308.2581974899341 312.86077481325174 307.3762023506566L312.86077481325174 307.3762023506566Q307.81211298152573 300.38106848742177 297.5323075651196 300.38106848742177L297.5323075651196 300.38106848742177Q289.4118695586686 300.38106848742177 284.1503123484963 304.97352593676294Q278.9191687638163 309.5659833861041 278.9191687638163 316.561117249339L278.9191687638163 316.561117249339Q278.9191687638163 324.01245549495883 281.7476359346026 329.60856258554674Q284.60651673088125 335.1742560506423 289.3206286821917 339.67547262350655Q294.0043270080099 344.17668919637066 303.6454462890771 352.0538181988831L303.6454462890771 352.0538181988831Q314.38145608786806 360.8129423406728 321.28534907462597 367.71683532743083Q328.1892420613839 374.5903146886964 333.2074902676177 384.35308847173286Q338.2561520993437 394.0854486292771 338.2561520993437 405.91634894579187L338.2561520993437 405.91634894579187Q338.2561520993437 416.4394633661365 333.1162493911406 424.65114224906443Q327.94593305744525 432.86282113199235 318.9739135372092 437.4552785813335Q310.0018940169731 442.0477360306747 298.6271980828434 442.0477360306747L298.6271980828434 442.0477360306747Q286.3400933839438 442.0477360306747 276.60773322639955 436.6949379440254Q266.8753730688553 431.3117262318837 261.15761147629814 421.67060695081653Q255.4702635092332 412.05990129524156 255.25736813078694 399.77279659634206L255.25736813078694 399.77279659634206Q255.25736813078694 398.67790607861826 256.35225864851066 398.67790607861826L256.35225864851066 398.67790607861826L262.49581099796046 398.67790607861826Q263.59070151568415 398.67790607861826 263.59070151568415 399.77279659634206L263.59070151568415 399.77279659634206Q263.80359689413046 414.8883684660279 273.65761155364396 424.31659236864886Q283.51162621315746 433.7144026457775 298.6271980828434 433.7144026457775L298.6271980828434 433.7144026457775Q312.6174658093131 433.7144026457775 321.28534907462597 425.95892814523444Q329.9228187144465 418.17304001919905 329.9228187144465 405.91634894579187L329.9228187144465 405.91634894579187Q329.9228187144465 395.84943890783205 325.54325664355156 387.7290009013811Q321.1636945726567 379.63897652042243 315.3546921036225 373.8299740513882Q309.5761032600806 368.020971582354 298.38388907890476 358.62316130522544L298.38388907890476 358.62316130522544Q287.8911882840524 349.8640371634356 282.8425264523263 344.8153753317095Q277.8242782460926 339.7971271254758 274.20505681250586 332.77157963674864Q270.5858353789191 325.7764457735137 270.5858353789191 316.561117249339L270.5858353789191 316.561117249339Q270.5858353789191 306.0684164544866 278.25006900298513 299.04286896575945Q285.91430262705126 292.0477351025245 297.5323075651196 292.0477351025245L297.5323075651196 292.0477351025245Q304.52744142835456 292.0477351025245 310.42768477386574 294.78496139683386Q316.3583417448692 297.52218769114313 319.8559086764867 302.5708495228692L319.8559086764867 302.5708495228692ZM415.9933788577281 302.5708495228692Q416.63206499306693 303.20953565820804 415.78048347928177 304.09153079748546L415.78048347928177 304.09153079748546L410.51892626910956 307.58909772910295Q409.8498265082784 308.2581974899341 408.9678313690009 307.3762023506566L408.9678313690009 307.3762023506566Q403.9495831627671 300.38106848742177 393.6393641208688 300.38106848742177L393.6393641208688 300.38106848742177Q385.5493397399101 300.38106848742177 380.2877825297378 304.97352593676294Q375.02622531956547 309.5659833861041 375.02622531956547 316.561117249339L375.02622531956547 316.561117249339Q375.02622531956547 324.01245549495883 377.885106115844 329.60856258554674Q380.74398691212264 335.1742560506423 385.42768523794086 339.67547262350655Q390.1417971892513 344.17668919637066 399.7829164703186 352.0538181988831L399.7829164703186 352.0538181988831Q410.51892626910956 360.8129423406728 417.42281925586747 367.71683532743083Q424.29629861713306 374.5903146886964 429.34496044885907 384.35308847173286Q434.3936222805851 394.0854486292771 434.3936222805851 405.91634894579187L434.3936222805851 405.91634894579187Q434.3936222805851 416.4394633661365 429.2233059468898 424.65114224906443Q424.08340323868674 432.86282113199235 415.1113837184507 437.4552785813335Q406.1393641982146 442.0477360306747 394.73425463859246 442.0477360306747L394.73425463859246 442.0477360306747Q382.4775635651853 442.0477360306747 372.74520340764104 436.6949379440254Q362.9824296246045 431.3117262318837 357.2950816575395 421.67060695081653Q351.6077336904747 412.05990129524156 351.39483831202836 399.77279659634206L351.39483831202836 399.77279659634206Q351.39483831202836 398.67790607861826 352.48972882975215 398.67790607861826L352.48972882975215 398.67790607861826L358.60286755370953 398.67790607861826Q359.6977580714333 398.67790607861826 359.6977580714333 399.77279659634206L359.6977580714333 399.77279659634206Q359.94106707537185 414.8883684660279 369.79508173488546 424.31659236864886Q379.64909639439895 433.7144026457775 394.73425463859246 433.7144026457775L394.73425463859246 433.7144026457775Q408.7549359905546 433.7144026457775 417.42281925586747 425.95892814523444Q426.0602888956879 418.17304001919905 426.0602888956879 405.91634894579187L426.0602888956879 405.91634894579187Q426.0602888956879 395.84943890783205 421.68072682479306 387.7290009013811Q417.3011647538981 379.63897652042243 411.492162284864 373.8299740513882Q405.68315981582975 368.020971582354 394.52135926014626 358.62316130522544L394.52135926014626 358.62316130522544Q384.0286584652938 349.8640371634356 378.9799966335678 344.8153753317095Q373.9313348018417 339.7971271254758 370.34252699374724 332.77157963674864Q366.7233055601605 325.7764457735137 366.7233055601605 316.561117249339L366.7233055601605 316.561117249339Q366.7233055601605 306.0684164544866 374.3875391842266 299.04286896575945Q382.05177280829264 292.0477351025245 393.6393641208688 292.0477351025245L393.6393641208688 292.0477351025245Q400.66491160959595 292.0477351025245 406.5651549551071 294.78496139683386Q412.4958119261107 297.52218769114313 415.9933788577281 302.5708495228692L415.9933788577281 302.5708495228692Z " fill="#FFFF" transform="matrix(0.7016211543587215,0,0,0.7016211543587215,0,42.4715510536565)"/><path d="M644.7158728146029 300.1748802688121Q645.2326281812383 300.6681467551458 644.5514506524918 301.34932428389243L644.5514506524918 301.34932428389243L640.4878743603139 304.0505455185771Q639.9711189936785 304.56730088521243 639.3134303452335 303.8861233564659L639.3134303452335 303.8861233564659Q635.414276215167 298.4836808870965 627.4750346732242 298.4836808870965L627.4750346732242 298.4836808870965Q621.2035036326954 298.4836808870965 617.1399273405176 302.030501812639Q613.0998399286412 305.57732273818146 613.0998399286412 310.9797652075508L613.0998399286412 310.9797652075508Q613.0998399286412 316.7345408814443 615.2843057966907 321.0564948569399Q617.4922605450416 325.3549599521337 621.1330369917906 328.83131423677145Q624.7503245582378 332.3076685214091 632.1962996138469 338.39128851952506L632.1962996138469 338.39128851952506Q640.4878743603139 345.15608604638754 645.8198501887784 350.4880618748521Q651.151826017243 355.79654882301503 655.027491267008 363.3364793998306Q658.9266453970746 370.85292109634446 658.9266453970746 379.99009553366926L658.9266453970746 379.99009553366926Q658.9266453970746 388.11724811802486 654.9570246261031 394.45924579945853Q650.9639149748301 400.8012434808921 644.0346952858564 404.3480644064346Q637.1054755968827 407.89488533197715 628.3206343640819 407.89488533197715L628.3206343640819 407.89488533197715Q618.8311267222332 407.89488533197715 611.3146850257193 403.76084239889445Q603.7982433292053 399.6033105855102 599.3823338325034 392.1573355299011Q594.9899132161031 384.7348493545937 594.8254910539919 375.24534171274485L594.8254910539919 375.24534171274485Q594.8254910539919 374.399742021887 595.6710907448497 374.399742021887L595.6710907448497 374.399742021887L600.4158445657741 374.399742021887Q601.2614442566319 374.399742021887 601.2614442566319 375.24534171274485L601.2614442566319 375.24534171274485Q601.4258664187431 386.919315222643 609.0362636364636 394.20086811614084Q616.6466608541838 401.45893212933703 628.3206343640819 401.45893212933703L628.3206343640819 401.45893212933703Q639.1255193028207 401.45893212933703 645.8198501887784 395.4692676524275Q652.4906921944345 389.4561142952164 652.4906921944345 379.99009553366926L652.4906921944345 379.99009553366926Q652.4906921944345 372.2152761538377 649.1082934310033 365.9437451133088Q645.725894667572 359.6957029530817 641.2395185299653 355.20932681547487Q636.7766312726602 350.72295067786814 628.1327233216691 343.46488666467195L628.1327233216691 343.46488666467195Q620.0290596176151 336.70008913780936 616.1299054875485 332.8009350077428Q612.2542402377835 328.9252697579778 609.4590634818924 323.49933840830687Q606.6638867260014 318.0968959389375 606.6638867260014 310.9797652075508L606.6638867260014 310.9797652075508Q606.6638867260014 302.8761015034968 612.583084562006 297.4501701538258Q618.5022823980106 292.04772768445645 627.4750346732242 292.04772768445645L627.4750346732242 292.04772768445645Q632.8774771425935 292.04772768445645 637.4343199211052 294.161726911601Q642.0146515799182 296.27572613874554 644.7158728146029 300.1748802688121L644.7158728146029 300.1748802688121ZM751.0970117005764 325.19053779002246Q751.4258560247989 328.57293655345376 751.4258560247989 366.29607831783295L751.4258560247989 366.29607831783295Q751.4258560247989 403.83130903979935 751.0970117005764 407.89488533197715L751.0970117005764 407.89488533197715L744.6610584979364 407.89488533197715Q744.8254806600477 406.7204413168968 744.8254806600477 392.50966873442525L744.8254806600477 392.50966873442525Q740.5974822057585 399.76773274762144 732.3293963395932 403.9252645610057Q724.0378215931263 408.0593074940884 711.6826705544815 408.0593074940884L711.6826705544815 408.0593074940884Q706.115805923001 408.0593074940884 699.5154305582497 407.0492856411193L699.5154305582497 407.0492856411193Q689.5326564300672 405.52250842151494 682.2511035365693 399.8616882688279Q674.9930395233731 394.20086811614084 671.1878409145129 385.81533784846755Q667.3826423056527 377.4532964610958 667.3826423056527 367.6349444950245L667.3826423056527 367.6349444950245Q667.3826423056527 356.1488820275392 672.0334406053707 346.33053006146787Q676.6842389050887 336.5356669756981 684.6234804470315 330.78089130180473Q692.586210869276 325.0261156279112 701.699896426299 325.0261156279112L701.699896426299 325.0261156279112Q716.0750911708819 325.0261156279112 727.6785980398753 333.90491238191834Q739.258616028567 342.78370913592533 744.8254806600477 356.1488820275392L744.8254806600477 356.1488820275392Q744.8254806600477 326.5528928475156 744.6610584979364 325.19053779002246L744.6610584979364 325.19053779002246L751.0970117005764 325.19053779002246ZM700.0086970445834 400.44891027636805Q706.4446502472234 401.2945099672258 710.8370708636238 401.2945099672258L710.8370708636238 401.2945099672258Q726.9034649899223 401.2945099672258 734.8661954121667 393.68411274950546Q742.8054369541095 386.0737155317851 742.8054369541095 374.399742021887L742.8054369541095 374.399742021887Q742.8054369541095 364.440456774006 737.3090389635337 354.3637271246171Q731.8126409729579 344.3104863555297 722.2526666902043 337.8040665119849Q712.6926924074506 331.27415778813844 701.2066299399653 331.27415778813844L701.2066299399653 331.27415778813844Q693.9250770464674 331.27415778813844 687.5126127241291 336.1833337711741Q681.076659521489 341.09250975420974 677.1775053914224 349.4545511415815Q673.3018401416574 357.84008140925476 673.3018401416574 367.4705223329133L673.3018401416574 367.4705223329133Q673.3018401416574 375.43325275515764 676.8486610671999 382.62085012744905Q680.3954819927425 389.80844749974057 686.4791019908583 394.62366796156977Q692.586210869276 399.43888842339896 700.0086970445834 400.44891027636805L700.0086970445834 400.44891027636805ZM803.1718593292369 293.0577495374255L803.8530368579835 297.8025033583499Q803.8530368579835 298.64810304920775 803.1718593292369 298.812525211319L803.1718593292369 298.812525211319Q784.9209993348891 302.030501812639 776.3005802641997 318.51969578436643Q767.6566723132087 335.00888975609377 767.6566723132087 368.1516998616598L767.6566723132087 368.1516998616598Q767.6566723132087 381.00011738663824 769.3478716949243 401.2945099672258L769.3478716949243 401.2945099672258L776.1126692217869 401.2945099672258Q786.0954433499693 401.2945099672258 787.1054652029384 401.13008780511456L787.1054652029384 401.13008780511456L787.1054652029384 407.5660410077547Q786.0954433499693 407.7304631698659 776.4650024263109 407.7304631698659L776.4650024263109 407.7304631698659L769.8646270615596 407.7304631698659Q770.1934713857821 410.1028400803281 770.1934713857821 411.6061284196308L770.1934713857821 411.6061284196308Q770.7102267524174 415.83412687391996 771.2974487599575 421.09563606147964Q771.8846707674977 426.33365636873776 772.7302704583556 432.581698528965L772.7302704583556 432.581698528965Q772.9181815007684 433.2628760577116 772.0725818099106 433.59172038193407L772.0725818099106 433.59172038193407L767.3278279889861 434.27289791068057L767.163405826875 434.27289791068057Q766.6466504602396 434.27289791068057 766.3178061360171 432.9340317334891L766.3178061360171 432.9340317334891Q764.2742735497774 418.5588369889062 763.4286738589195 407.7304631698659L763.4286738589195 407.7304631698659L758.0262313895502 407.5660410077547L758.0262313895502 401.13008780511456L762.7709852104746 401.2945099672258Q761.2442079908702 384.05367182584706 761.2442079908702 368.8328773904064L761.2442079908702 368.8328773904064Q761.2442079908702 335.173311918205 770.7102267524174 315.63056350726885Q780.1762455139647 296.1113039766343 802.1618374762678 292.3765720086789L802.1618374762678 292.3765720086789Q802.5141706807918 292.2121498465677 802.8430150050144 292.4705275298853Q803.1718593292369 292.728905213203 803.1718593292369 293.0577495374255L803.1718593292369 293.0577495374255ZM857.6425727486611 407.0492856411193Q851.0421973839099 408.0593074940884 845.4518438721276 408.0593074940884L845.4518438721276 408.0593074940884Q840.0494014027582 408.0593074940884 834.1302035667535 406.88486347900806L834.1302035667535 406.88486347900806Q841.2238454178386 412.2873059483774 849.0221536779717 416.8676376071906Q856.7969730578033 421.4244803857021 861.706149040839 423.28010192952905L861.706149040839 423.28010192952905L859.8270386167104 428.70603327919997Q854.5890183094524 427.1792560595956 845.2169550691116 421.51843590690856Q835.8214029484692 415.83412687391996 827.0365617156685 408.4821073395173Q818.2282316025663 401.13008780511456 813.8358109861659 394.88204564488746L813.8358109861659 394.88204564488746Q808.0810353122725 387.2716484271671 808.0810353122725 375.5976749172689L808.0810353122725 375.5976749172689Q808.0810353122725 363.7592792452595 814.2586108315949 351.9913502141549Q820.4361863509173 340.2469100633519 831.3350268108625 332.63651284563156Q842.2573561511092 325.0261156279112 855.4346180003103 325.0261156279112L855.4346180003103 325.0261156279112Q864.5717924376348 325.0261156279112 872.5110339795777 330.78089130180473Q880.4737644018222 336.5356669756981 885.1245627015402 346.33053006146787Q889.7753610012581 356.1488820275392 889.7753610012581 367.6349444950245L889.7753610012581 367.6349444950245Q889.7753610012581 377.4532964610958 885.970162392398 385.81533784846755Q882.1649637835377 394.20086811614084 874.88341089004 399.8616882688279Q867.6253468768437 405.52250842151494 857.6425727486611 407.0492856411193L857.6425727486611 407.0492856411193ZM855.9513733669455 331.27415778813844Q844.4418220191586 331.27415778813844 834.8818477364049 337.8040665119849Q825.345362333953 344.3104863555297 819.8489643433771 354.3637271246171Q814.3525663528013 364.440456774006 814.3525663528013 374.399742021887L814.3525663528013 374.399742021887Q814.3525663528013 386.23813769389636 822.2918078947441 393.7780682707119Q830.2310494366869 401.2945099672258 846.2974435629854 401.2945099672258L846.2974435629854 401.2945099672258Q850.7133530596874 401.2945099672258 857.1258173820257 400.44891027636805L857.1258173820257 400.44891027636805Q864.5717924376348 399.43888842339896 870.6554124357509 394.62366796156977Q876.7390324338668 389.80844749974057 880.3093422397109 382.62085012744905Q883.8561631652534 375.43325275515764 883.8561631652534 367.4705223329133L883.8561631652534 367.4705223329133Q883.8561631652534 357.84008140925476 879.9570090351868 349.4545511415815Q876.0813437854218 341.09250975420974 869.6453905827817 336.1833337711741Q863.2094373801418 331.27415778813844 855.9513733669455 331.27415778813844L855.9513733669455 331.27415778813844ZM947.2761399795896 300.1748802688121Q947.7694064659232 300.6681467551458 947.1117178174783 301.34932428389243L947.1117178174783 301.34932428389243L943.0481415253005 304.0505455185771Q942.5313861586652 304.56730088521243 941.8502086299185 303.8861233564659L941.8502086299185 303.8861233564659Q937.9745433801536 298.4836808870965 930.0118129579092 298.4836808870965L930.0118129579092 298.4836808870965Q923.763770797682 298.4836808870965 919.7001945055041 302.030501812639Q915.6366182133263 305.57732273818146 915.6366182133263 310.9797652075508L915.6366182133263 310.9797652075508Q915.6366182133263 316.7345408814443 917.8445729616773 321.0564948569399Q920.0525277100282 325.3549599521337 923.6698152764756 328.83131423677145Q927.3105917232245 332.3076685214091 934.7565667788336 338.39128851952506L934.7565667788336 338.39128851952506Q943.0481415253005 345.15608604638754 948.3801173537651 350.4880618748521Q953.688604301928 355.79654882301503 957.5877584319945 363.3364793998306Q961.4869125620611 370.85292109634446 961.4869125620611 379.99009553366926L961.4869125620611 379.99009553366926Q961.4869125620611 388.11724811802486 957.4938029107882 394.45924579945853Q953.5241821398168 400.8012434808921 946.5949624508429 404.3480644064346Q939.6657427618692 407.89488533197715 930.857412648767 407.89488533197715L930.857412648767 407.89488533197715Q921.3913938872198 407.89488533197715 913.8749521907058 403.76084239889445Q906.3350216138903 399.6033105855102 901.94260099749 392.1573355299011Q897.5501803810897 384.7348493545937 897.3857582189784 375.24534171274485L897.3857582189784 375.24534171274485Q897.3857582189784 374.399742021887 898.2313579098363 374.399742021887L898.2313579098363 374.399742021887L902.9526228504591 374.399742021887Q903.7982225413168 374.399742021887 903.7982225413168 375.24534171274485L903.7982225413168 375.24534171274485Q903.9861335837297 386.919315222643 911.5965308014501 394.20086811614084Q919.2069280191704 401.45893212933703 930.857412648767 401.45893212933703L930.857412648767 401.45893212933703Q941.6857864678074 401.45893212933703 948.3801173537651 395.4692676524275Q955.0509593594212 389.4561142952164 955.0509593594212 379.99009553366926L955.0509593594212 379.99009553366926Q955.0509593594212 372.2152761538377 951.6685605959899 365.9437451133088Q948.2861618325586 359.6957029530817 943.7997856949518 355.20932681547487Q939.3134095573452 350.72295067786814 930.6929904866557 343.46488666467195L930.6929904866557 343.46488666467195Q922.5893267826017 336.70008913780936 918.6901726525351 332.8009350077428Q914.7910185224684 328.9252697579778 912.019330646879 323.49933840830687Q909.2241538909878 318.0968959389375 909.2241538909878 310.9797652075508L909.2241538909878 310.9797652075508Q909.2241538909878 302.8761015034968 915.1433517269926 297.4501701538258Q921.0625495629973 292.04772768445645 930.0118129579092 292.04772768445645L930.0118129579092 292.04772768445645Q935.4377443075801 292.04772768445645 939.9945870860918 294.161726911601Q944.574918744905 296.27572613874554 947.2761399795896 300.1748802688121L947.2761399795896 300.1748802688121ZM1015.088537410326 434.6252311152047Q1015.7697149390726 434.78965327731595 1015.7697149390726 435.6352529681738L1015.7697149390726 435.6352529681738L1015.088537410326 440.35651790879655Q1015.088537410326 440.7088511133207 1014.7596930861035 440.9672287966384Q1014.4073598815794 441.2021175996544 1014.0785155573569 441.03769543754316L1014.0785155573569 441.03769543754316Q992.0929235950538 437.3264523498894 982.6269048335065 417.78370393895324Q973.1373971916577 398.26444440831864 973.1373971916577 364.60487893611725L973.1373971916577 364.60487893611725Q973.1373971916577 349.3840845006766 974.6641744112621 332.1197574789963L974.6641744112621 332.1197574789963L969.9429094706394 332.3076685214091L969.9429094706394 325.8717153187691L975.3453519400086 325.70729315665784Q976.1909516308666 314.87891933761745 978.2109953368046 300.5037245930346L978.2109953368046 300.5037245930346Q978.5633285413288 298.9769473734302 979.2445060700753 299.14136953554146L979.2445060700753 299.14136953554146L983.9657710106982 299.822547064288Q984.8113707015558 300.1748802688121 984.6469485394447 300.83256891725705L984.6469485394447 300.83256891725705Q983.8013488485868 307.43294428200835 983.2141268410467 312.6709645892665Q982.6269048335065 317.93247377682627 982.1101494668711 321.9725611887025L982.1101494668711 321.9725611887025Q982.1101494668711 323.33491624619563 981.7813051426488 325.70729315665784L981.7813051426488 325.70729315665784L988.3581916270983 325.70729315665784Q998.0121214310585 325.70729315665784 999.0221432840275 325.8717153187691L999.0221432840275 325.8717153187691L999.0221432840275 332.3076685214091Q998.0121214310585 332.1197574789963 988.0293473028759 332.1197574789963L988.0293473028759 332.1197574789963L981.2645497760135 332.1197574789963Q979.5733503942978 352.41415005958385 979.5733503942978 365.28605646486386L979.5733503942978 365.28605646486386Q979.5733503942978 398.4288665704299 988.1937694649872 414.9180605421573Q996.8141885356766 431.40725451388465 1015.088537410326 434.6252311152047L1015.088537410326 434.6252311152047ZM1069.535761949449 407.0492856411193Q1062.958875464999 408.0593074940884 1057.3685219532167 408.0593074940884L1057.3685219532167 408.0593074940884Q1051.9660794838474 408.0593074940884 1046.0468816478428 406.88486347900806L1046.0468816478428 406.88486347900806Q1053.140523498928 412.2873059483774 1060.9153428787595 416.8676376071906Q1068.690162258591 421.4244803857021 1073.5993382416264 423.28010192952905L1073.5993382416264 423.28010192952905L1071.7437166977998 428.70603327919997Q1066.5056963905417 427.1792560595956 1057.1101442698991 421.51843590690856Q1047.7380810295585 415.83412687391996 1038.9297509164562 408.4821073395173Q1030.1449096836554 401.13008780511456 1025.7524890672553 394.88204564488746L1025.7524890672553 394.88204564488746Q1019.9977133933616 387.2716484271671 1019.9977133933616 375.5976749172689L1019.9977133933616 375.5976749172689Q1019.9977133933616 363.7592792452595 1026.1752889126842 351.9913502141549Q1032.3293755517047 340.2469100633519 1043.2517048919517 332.63651284563156Q1054.1505453518967 325.0261156279112 1067.3512960813991 325.0261156279112L1067.3512960813991 325.0261156279112Q1076.4884705187242 325.0261156279112 1084.427712060667 330.78089130180473Q1092.3669536026096 336.5356669756981 1097.0177519023277 346.33053006146787Q1101.6685502020455 356.1488820275392 1101.6685502020455 367.6349444950245L1101.6685502020455 367.6349444950245Q1101.6685502020455 377.4532964610958 1097.8633515931856 385.81533784846755Q1094.0581529843253 394.20086811614084 1086.8000889711293 399.8616882688279Q1079.5185360776313 405.52250842151494 1069.535761949449 407.0492856411193L1069.535761949449 407.0492856411193ZM1067.8445625677332 331.27415778813844Q1056.3585001002475 331.27415778813844 1046.798525817494 337.8040665119849Q1037.2385515347405 344.3104863555297 1031.7421535441645 354.3637271246171Q1026.2457555535889 364.440456774006 1026.2457555535889 374.399742021887L1026.2457555535889 374.399742021887Q1026.2457555535889 386.23813769389636 1034.2084859758334 393.7780682707119Q1042.1477275177763 401.2945099672258 1058.2141216440746 401.2945099672258L1058.2141216440746 401.2945099672258Q1062.6065422604747 401.2945099672258 1069.0424954631148 400.44891027636805L1069.0424954631148 400.44891027636805Q1076.4884705187242 399.43888842339896 1082.57209051684 394.62366796156977Q1088.655710514956 389.80844749974057 1092.2025314404987 382.62085012744905Q1095.749352366041 375.43325275515764 1095.749352366041 367.4705223329133L1095.749352366041 367.4705223329133Q1095.749352366041 357.84008140925476 1091.873687116276 349.4545511415815Q1087.9745329862094 341.09250975420974 1081.5620686638708 336.1833337711741Q1075.1261154612307 331.27415778813844 1067.8445625677332 331.27415778813844L1067.8445625677332 331.27415778813844ZM1107.5877480380504 367.1416780086907Q1106.9300593896055 353.2597497504416 1111.1580578438943 344.0521086722121Q1115.3860562981836 334.84446759398253 1122.9024979946976 330.4285580972806Q1130.4189396912116 326.0361374808803 1139.9084473330604 326.0361374808803L1139.9084473330604 326.0361374808803Q1151.7468430050694 326.0361374808803 1163.4912831558727 332.3076685214091Q1175.2357233066755 338.5557106816363 1182.8461205243957 349.4545511415815Q1190.4565177421164 360.3768804818282 1190.4565177421164 373.55414233102914L1190.4565177421164 373.55414233102914Q1190.4565177421164 382.69131676835394 1184.7252309485243 390.6540471905983Q1178.9704552746311 398.5932887325411 1169.1521033085596 403.2440870322592Q1159.35724022279 407.89488533197715 1147.8476888750029 407.89488533197715L1147.8476888750029 407.89488533197715Q1137.3716482604868 407.89488533197715 1128.304940464067 403.4085091943704Q1119.2617215479486 398.9221330567636 1114.0237012406906 390.81846935270954L1114.0237012406906 390.81846935270954L1114.0237012406906 442.04771729051225L1107.5877480380504 442.04771729051225L1107.5877480380504 367.1416780086907ZM1148.0121110371142 401.9756874959724Q1157.6660408410744 401.9756874959724 1166.0280822284462 398.07653336590585Q1174.3901236158176 394.20086811614084 1179.2992995988534 387.76491491350083Q1184.2084755818892 381.3524505911624 1184.2084755818892 374.0708976976645L1184.2084755818892 374.0708976976645Q1184.2084755818892 362.5613463498776 1177.7020557383444 353.02486094742557Q1171.1956358947996 343.46488666467195 1161.1189062454105 337.96848867409614Q1151.065665476323 332.4720906835203 1141.0828913481405 332.4720906835203L1141.0828913481405 332.4720906835203Q1129.244495676131 332.4720906835203 1121.728053979617 340.4113322254631Q1114.188123402802 348.3740626477076 1114.188123402802 364.440456774006L1114.188123402802 364.440456774006Q1114.188123402802 368.8328773904064 1115.0337230936593 375.24534171274485L1115.0337230936593 375.24534171274485Q1116.0437449466285 382.69131676835394 1120.8824542887596 388.7749367664698Q1125.6976747505887 394.88204564488746 1132.88527212288 398.4288665704299Q1140.0728694951713 401.9756874959724 1148.0121110371142 401.9756874959724L1148.0121110371142 401.9756874959724ZM1236.306812090851 326.88173717173805L1232.2432357986731 331.95533531688505Q1228.8608370352422 329.25411408220026 1224.632838580953 329.25411408220026L1224.632838580953 329.25411408220026Q1220.0525069221399 329.25411408220026 1216.6701081587084 332.5425573244251Q1213.287709395277 335.8544894469516 1213.287709395277 341.09250975420974L1213.287709395277 341.09250975420974Q1213.287709395277 347.01170759021437 1217.5157078495663 351.8269280520437Q1221.7437063038556 356.6421485138729 1230.1997032124336 363.40694604073536L1230.1997032124336 363.40694604073536Q1237.8101004301539 369.5140549191529 1241.9676322435384 373.97694217645807Q1246.101675176621 378.4633183140648 1246.7828527053675 383.8892496637358L1246.7828527053675 383.8892496637358Q1247.1116970295898 386.5904708984205 1247.1116970295898 387.76491491350083L1247.1116970295898 387.76491491350083Q1247.1116970295898 396.7376671887143 1241.3804102359982 402.3045318201949Q1235.6256345621046 407.89488533197715 1225.9717047581444 407.89488533197715L1225.9717047581444 407.89488533197715Q1213.1232872331661 407.89488533197715 1205.1840456912232 399.69726610671665Q1197.2213152689787 391.49964688145616 1197.2213152689787 378.1344739898423L1197.2213152689787 378.1344739898423L1203.6572684716189 378.1344739898423Q1203.6572684716189 388.7749367664698 1209.7408884697347 395.1169344479035Q1215.8245084678506 401.45893212933703 1225.9717047581444 401.45893212933703L1225.9717047581444 401.45893212933703Q1232.9244133274196 401.45893212933703 1236.72961193628 397.8416445628897Q1240.5348105451403 394.20086811614084 1240.5348105451403 387.6004927513896L1240.5348105451403 387.6004927513896Q1240.5348105451403 385.9092933696739 1240.3468995027274 384.8992715167049L1240.3468995027274 384.8992715167049Q1239.8536330163938 381.00011738663824 1236.6356564150738 377.61771862320705Q1233.4176798137537 374.23531985977576 1226.1596158005573 368.48054418588225L1226.1596158005573 368.48054418588225Q1219.8880847600285 363.40694604073536 1216.1768416723748 359.86012511519294Q1212.4421097044196 356.3133041896504 1209.67042182883 351.4980837278212Q1206.875245072939 346.6828632659919 1206.875245072939 341.09250975420974L1206.875245072939 341.09250975420974Q1206.875245072939 333.15326821226694 1212.113265380197 327.89175902470714Q1217.351285687455 322.653738717449 1224.632838580953 322.653738717449L1224.632838580953 322.653738717449Q1230.8808807411801 322.653738717449 1236.306812090851 326.88173717173805L1236.306812090851 326.88173717173805Z " fill="#b2b5e0" transform="matrix(0.7016211543587215,0,0,0.7016211543587215,0,42.4715510536565)"/></g></svg>